STARTFONT 2.1
FONT -FontForge-Nimbus-Medium-R-Normal--29-280-75-75-P-159-ISO10646-1
SIZE 35 72 72
FONTBOUNDINGBOX 15 35 2 -7
COMMENT "Generated by fontforge, http://fontforge.sourceforge.net"
STARTPROPERTIES 6
COPYRIGHT "Copyright (c) 2010 Alexander Levin"
AXIS_TYPES 72
RESOLUTION_Y 72
FONT_ASCENT 28
FONT_DESCENT 7
DEFAULT_CHAR 0
ENDPROPERTIES
CHARS 134
STARTCHAR uni0000
ENCODING 0
SWIDTH 620 0
DWIDTH 18 0
BBX 15 22 2 0
BITMAP
1FF0
3FF8
701C
E00E
C006
C7C6
CFE6
CC66
CC66
C0E6
C1C6
C386
C386
C386
C386
C006
C386
C386
E00E
701C
3FF8
1FF0
ENDCHAR
STARTCHAR space
ENCODING 32
SWIDTH 482 0
DWIDTH 14 0
BBX 1 1 0 0
BITMAP
00
ENDCHAR
STARTCHAR exclam
ENCODING 33
SWIDTH 72 0
DWIDTH 8 0
BBX 5 22 2 0
BITMAP
F8
F8
F8
F8
F8
F8
F8
F8
F8
F8
F8
F8
F8
F8
00
00
00
F8
F8
F8
F8
F8
ENDCHAR
STARTCHAR quotedbl
ENCODING 34
SWIDTH 413 0
DWIDTH 12 0
BBX 8 7 2 15
BITMAP
E7
E7
E7
E7
E7
E7
E7
ENDCHAR
STARTCHAR numbersign
ENCODING 35
SWIDTH 655 0
DWIDTH 19 0
BBX 17 20 1 2
BITMAP
038700
038700
038700
070E00
070E00
3FFF80
3FFF80
0E1C00
0E1C00
0E1C00
1C3800
1C3800
1C3800
FFFE00
FFFE00
387000
387000
70E000
70E000
70E000
ENDCHAR
STARTCHAR dollar
ENCODING 36
SWIDTH 72 0
DWIDTH 16 0
BBX 13 26 2 -2
BITMAP
0700
0700
0F80
3FE0
7F70
7738
F738
F700
F700
FF00
7F00
7F00
3FC0
1FE0
07F0
07F0
07F8
0778
0778
E778
E770
77F0
3FE0
0F80
0700
0700
ENDCHAR
STARTCHAR percent
ENCODING 37
SWIDTH 793 0
DWIDTH 23 0
BBX 21 22 2 0
BITMAP
3E7F80
7F7F80
E38700
C18700
C18E00
C18E00
E39C00
7F1C00
3E3800
003800
007000
007000
00E000
00E3E0
01C7F0
01CE38
038C18
038C18
070C18
070E38
0E07F0
0E03E0
ENDCHAR
STARTCHAR ampersand
ENCODING 38
SWIDTH 724 0
DWIDTH 21 0
BBX 19 22 2 0
BITMAP
0FE000
3FF800
7C7C00
783C00
F83E00
F83E00
783E00
7C0060
3F0060
0F0060
3C00E0
783FC0
783F80
F83E00
F83E00
F83E00
F83E00
F83E00
783C00
7C7C00
3FF800
0FE000
ENDCHAR
STARTCHAR quotesingle
ENCODING 39
SWIDTH 206 0
DWIDTH 6 0
BBX 3 7 2 15
BITMAP
E0
E0
E0
E0
E0
E0
E0
ENDCHAR
STARTCHAR parenleft
ENCODING 40
SWIDTH 72 0
DWIDTH 11 0
BBX 8 26 2 -2
BITMAP
07
1F
3C
78
78
F8
F8
F8
F8
F8
F8
F8
F8
F8
F8
F8
F8
F8
F8
F8
F8
78
78
3C
1F
07
ENDCHAR
STARTCHAR parenright
ENCODING 41
SWIDTH 72 0
DWIDTH 11 0
BBX 8 26 2 -2
BITMAP
E0
F8
1C
1E
1E
1F
1F
1F
1F
1F
1F
1F
1F
1F
1F
1F
1F
1F
1F
1F
1F
1E
1E
1C
F8
E0
ENDCHAR
STARTCHAR asterisk
ENCODING 42
SWIDTH 72 0
DWIDTH 15 0
BBX 12 12 2 10
BITMAP
0600
4620
E670
76E0
3FC0
1F80
1F80
3FC0
76E0
E670
4620
0600
ENDCHAR
STARTCHAR plus
ENCODING 43
SWIDTH 517 0
DWIDTH 15 0
BBX 12 12 2 3
BITMAP
0600
0600
0600
0600
0600
FFF0
FFF0
0600
0600
0600
0600
0600
ENDCHAR
STARTCHAR comma
ENCODING 44
SWIDTH 310 0
DWIDTH 9 0
BBX 5 9 2 -4
BITMAP
F8
F8
F8
F8
F8
18
38
F0
E0
ENDCHAR
STARTCHAR hyphen
ENCODING 45
SWIDTH 72 0
DWIDTH 15 0
BBX 12 2 2 8
BITMAP
FFF0
FFF0
ENDCHAR
STARTCHAR period
ENCODING 46
SWIDTH 648 0
DWIDTH 9 0
BBX 5 5 2 0
BITMAP
F8
F8
F8
F8
F8
ENDCHAR
STARTCHAR slash
ENCODING 47
SWIDTH 448 0
DWIDTH 13 0
BBX 10 24 2 0
BITMAP
01C0
01C0
01C0
0380
0380
0380
0700
0700
0700
0E00
0E00
0E00
1C00
1C00
1C00
3800
3800
3800
7000
7000
7000
E000
E000
E000
ENDCHAR
STARTCHAR zero
ENCODING 48
SWIDTH 620 0
DWIDTH 18 0
BBX 15 22 2 0
BITMAP
0FE0
3FF8
7C7C
783C
F83E
F87E
F87E
F8FE
F8FE
F9BE
F9BE
FB3E
FB3E
FE3E
FE3E
FC3E
FC3E
F83E
783C
7C7C
3FF8
0FE0
ENDCHAR
STARTCHAR one
ENCODING 49
SWIDTH 620 0
DWIDTH 18 0
BBX 8 22 4 0
BITMAP
0F
1F
3F
7F
FF
FF
1F
1F
1F
1F
1F
1F
1F
1F
1F
1F
1F
1F
1F
1F
1F
1F
ENDCHAR
STARTCHAR two
ENCODING 50
SWIDTH 620 0
DWIDTH 18 0
BBX 15 22 2 0
BITMAP
0FE0
3FF8
707C
E03C
E03E
003E
003E
003C
007C
0078
00F0
01E0
03C0
0780
0F00
1E00
3C00
7800
F800
F800
FFFE
FFFE
ENDCHAR
STARTCHAR three
ENCODING 51
SWIDTH 620 0
DWIDTH 18 0
BBX 15 22 2 0
BITMAP
FFFC
FFFC
0078
00F0
01E0
03C0
0780
0F00
1FE0
1FF8
007C
003C
003E
003E
003E
003E
003E
C03E
C03C
607C
3FF8
0FE0
ENDCHAR
STARTCHAR four
ENCODING 52
SWIDTH 620 0
DWIDTH 18 0
BBX 17 22 0 0
BITMAP
003E00
007E00
00FE00
01FE00
03BE00
073E00
0E3E00
1C3E00
383E00
703E00
FFFF80
FFFF80
003E00
003E00
003E00
003E00
003E00
003E00
003E00
003E00
003E00
003E00
ENDCHAR
STARTCHAR five
ENCODING 53
SWIDTH 620 0
DWIDTH 18 0
BBX 15 22 2 0
BITMAP
FFFC
FFFC
F800
F800
F800
F800
F800
F800
FFE0
FFF8
007C
003C
003E
003E
003E
003E
003E
C03E
C03C
607C
3FF8
0FE0
ENDCHAR
STARTCHAR six
ENCODING 54
SWIDTH 620 0
DWIDTH 18 0
BBX 15 22 2 0
BITMAP
07F8
1FF8
3C00
7800
7800
F800
F800
F800
FBE0
FFF8
FC7C
F83C
F83E
F83E
F83E
F83E
F83E
F83E
783C
7C7C
3FF8
0FE0
ENDCHAR
STARTCHAR seven
ENCODING 55
SWIDTH 620 0
DWIDTH 18 0
BBX 15 22 2 0
BITMAP
FFFE
FFFE
003E
003E
007C
007C
007C
00F8
00F8
00F8
01F0
01F0
01F0
03E0
03E0
03E0
07C0
07C0
07C0
07C0
07C0
07C0
ENDCHAR
STARTCHAR eight
ENCODING 56
SWIDTH 620 0
DWIDTH 18 0
BBX 15 22 2 0
BITMAP
0FE0
3FF8
7C7C
783C
F83E
F83E
F83E
783C
783C
3C78
0FE0
3FF8
7C7C
783C
F83E
F83E
F83E
F83E
783C
7C7C
3FF8
0FE0
ENDCHAR
STARTCHAR nine
ENCODING 57
SWIDTH 620 0
DWIDTH 18 0
BBX 15 22 2 0
BITMAP
0FE0
3FF8
7C7C
783C
F83E
F83E
F83E
F83E
F83E
F83E
783E
7C7E
3FFE
0FBE
003E
003E
003E
003C
003C
0078
3FF0
3FC0
ENDCHAR
STARTCHAR colon
ENCODING 58
SWIDTH 72 0
DWIDTH 9 0
BBX 5 16 2 0
BITMAP
F8
F8
F8
F8
F8
00
00
00
00
00
00
F8
F8
F8
F8
F8
ENDCHAR
STARTCHAR semicolon
ENCODING 59
SWIDTH 72 0
DWIDTH 9 0
BBX 5 20 2 -4
BITMAP
F8
F8
F8
F8
F8
00
00
00
00
00
00
F8
F8
F8
F8
F8
18
38
F0
E0
ENDCHAR
STARTCHAR less
ENCODING 60
SWIDTH 379 0
DWIDTH 11 0
BBX 11 17 0 2
BITMAP
00E0
01C0
0380
0700
0E00
1C00
3800
7000
E000
7000
3800
1C00
0E00
0700
0380
01C0
00E0
ENDCHAR
STARTCHAR equal
ENCODING 61
SWIDTH 620 0
DWIDTH 18 0
BBX 15 6 2 6
BITMAP
FFFE
FFFE
0000
0000
FFFE
FFFE
ENDCHAR
STARTCHAR greater
ENCODING 62
SWIDTH 72 0
DWIDTH 11 0
BBX 11 17 0 2
BITMAP
E000
7000
3800
1C00
0E00
0700
0380
01C0
00E0
01C0
0380
0700
0E00
1C00
3800
7000
E000
ENDCHAR
STARTCHAR question
ENCODING 63
SWIDTH 620 0
DWIDTH 18 0
BBX 15 22 2 0
BITMAP
0FE0
3FF8
707C
E03E
E03E
003E
007E
007C
00FC
01F8
03F0
03E0
07C0
07C0
07C0
0000
0000
07C0
07C0
07C0
07C0
07C0
ENDCHAR
STARTCHAR at
ENCODING 64
SWIDTH 862 0
DWIDTH 25 0
BBX 22 22 2 0
BITMAP
01FE00
07FF80
1E01E0
380070
300030
60FF18
63FF18
C3030C
C6030C
C6030C
C6030C
C6030C
C6030C
C6030C
C30718
63FFF8
60F9F0
300000
380000
1E0000
07FFC0
01FFC0
ENDCHAR
STARTCHAR A
ENCODING 65
SWIDTH 620 0
DWIDTH 18 0
BBX 15 22 2 0
BITMAP
0FE0
3FF8
7C7C
783C
F83E
F83E
F83E
F83E
F83E
F83E
FFFE
FFFE
F83E
F83E
F83E
F83E
F83E
F83E
F83E
F83E
F83E
F83E
ENDCHAR
STARTCHAR B
ENCODING 66
SWIDTH 620 0
DWIDTH 18 0
BBX 15 22 2 0
BITMAP
FFE0
FFF8
F87C
F83C
F83E
F83E
F83E
F83C
F83C
F878
FFE0
FFE0
F878
F83C
F83C
F83E
F83E
F83E
F83C
F87C
FFF8
FFE0
ENDCHAR
STARTCHAR C
ENCODING 67
SWIDTH 620 0
DWIDTH 18 0
BBX 15 22 2 0
BITMAP
07E0
1FF8
3C1C
780E
780E
F800
F800
F800
F800
F800
F800
F800
F800
F800
F800
F800
F800
F80E
780E
7C1C
3FF8
0FE0
ENDCHAR
STARTCHAR D
ENCODING 68
SWIDTH 620 0
DWIDTH 18 0
BBX 15 22 2 0
BITMAP
FFE0
FFF8
F87C
F83C
F83E
F83E
F83E
F83E
F83E
F83E
F83E
F83E
F83E
F83E
F83E
F83E
F83E
F83E
F83C
F87C
FFF8
FFE0
ENDCHAR
STARTCHAR E
ENCODING 69
SWIDTH 551 0
DWIDTH 16 0
BBX 13 22 2 0
BITMAP
FFF8
FFF8
F800
F800
F800
F800
F800
F800
F800
F800
FFE0
FFE0
F800
F800
F800
F800
F800
F800
F800
F800
FFF8
FFF8
ENDCHAR
STARTCHAR F
ENCODING 70
SWIDTH 551 0
DWIDTH 16 0
BBX 13 22 2 0
BITMAP
FFF8
FFF8
F800
F800
F800
F800
F800
F800
F800
F800
FFE0
FFE0
F800
F800
F800
F800
F800
F800
F800
F800
F800
F800
ENDCHAR
STARTCHAR G
ENCODING 71
SWIDTH 620 0
DWIDTH 18 0
BBX 15 22 2 0
BITMAP
07E0
1FF8
3C1C
780E
780E
F800
F800
F800
F800
F800
F8FE
F8FE
F83E
F83E
F83E
F83E
F83E
F83E
783C
7C7C
3FF8
0FE0
ENDCHAR
STARTCHAR H
ENCODING 72
SWIDTH 620 0
DWIDTH 18 0
BBX 15 22 2 0
BITMAP
F83E
F83E
F83E
F83E
F83E
F83E
F83E
F83E
F83E
F83E
FFFE
FFFE
F83E
F83E
F83E
F83E
F83E
F83E
F83E
F83E
F83E
F83E
ENDCHAR
STARTCHAR I
ENCODING 73
SWIDTH 275 0
DWIDTH 8 0
BBX 5 22 2 0
BITMAP
F8
F8
F8
F8
F8
F8
F8
F8
F8
F8
F8
F8
F8
F8
F8
F8
F8
F8
F8
F8
F8
F8
ENDCHAR
STARTCHAR J
ENCODING 74
SWIDTH 620 0
DWIDTH 18 0
BBX 15 22 2 0
BITMAP
003E
003E
003E
003E
003E
003E
003E
003E
003E
003E
003E
003E
F83E
F83E
F83E
F83E
F83E
F83E
783C
7C7C
3FF8
0FE0
ENDCHAR
STARTCHAR K
ENCODING 75
SWIDTH 724 0
DWIDTH 21 0
BBX 18 22 2 0
BITMAP
F803C0
F80780
F80F00
F81E00
F83C00
F87800
F8F000
F9E000
FBC000
FF8000
FF0000
FF0000
FF8000
FBC000
F9E000
F8F000
F87800
F83C00
F81E00
F80F00
F80780
F803C0
ENDCHAR
STARTCHAR L
ENCODING 76
SWIDTH 551 0
DWIDTH 16 0
BBX 13 22 2 0
BITMAP
F800
F800
F800
F800
F800
F800
F800
F800
F800
F800
F800
F800
F800
F800
F800
F800
F800
F800
F800
F800
FFF8
FFF8
ENDCHAR
STARTCHAR M
ENCODING 77
SWIDTH 896 0
DWIDTH 26 0
BBX 23 22 2 0
BITMAP
C00006
E0000E
F0001E
F8003E
FC007E
FE00FE
FF01FE
FF83FE
FFC7FE
EFEFBE
E7FF3E
E3FE3E
E1FC3E
E0F83E
E0703E
E0203E
E0003E
E0003E
E0003E
E0003E
E0003E
E0003E
ENDCHAR
STARTCHAR N
ENCODING 78
SWIDTH 724 0
DWIDTH 21 0
BBX 18 22 2 0
BITMAP
C001C0
E001C0
F001C0
F801C0
FC01C0
FE01C0
FF01C0
FF81C0
FFC1C0
EFE1C0
E7F1C0
E3F9C0
E1FDC0
E0FFC0
E07FC0
E03FC0
E01FC0
E00FC0
E007C0
E003C0
E001C0
E000C0
ENDCHAR
STARTCHAR O
ENCODING 79
SWIDTH 620 0
DWIDTH 18 0
BBX 15 22 2 0
BITMAP
0FE0
3FF8
7C7C
783C
F83E
F83E
F83E
F83E
F83E
F83E
F83E
F83E
F83E
F83E
F83E
F83E
F83E
F83E
783C
7C7C
3FF8
0FE0
ENDCHAR
STARTCHAR P
ENCODING 80
SWIDTH 620 0
DWIDTH 18 0
BBX 15 22 2 0
BITMAP
FFE0
FFF8
F87C
F83C
F83E
F83E
F83E
F83E
F83C
F87C
FFF8
FFE0
F800
F800
F800
F800
F800
F800
F800
F800
F800
F800
ENDCHAR
STARTCHAR Q
ENCODING 81
SWIDTH 620 0
DWIDTH 18 0
BBX 15 24 2 -2
BITMAP
0FE0
3FF8
7C7C
783C
F83E
F83E
F83E
F83E
F83E
F83E
F83E
F83E
F83E
F83E
F83E
F83E
F83E
F83E
783C
7C7C
3FF8
0FE0
007E
003E
ENDCHAR
STARTCHAR R
ENCODING 82
SWIDTH 620 0
DWIDTH 18 0
BBX 15 22 2 0
BITMAP
FFE0
FFF8
F87C
F83C
F83E
F83E
F83E
F83C
F83C
F878
FFE0
FFE0
F878
F83C
F83C
F83E
F83E
F83E
F83E
F83E
F83E
F83E
ENDCHAR
STARTCHAR S
ENCODING 83
SWIDTH 551 0
DWIDTH 16 0
BBX 13 22 2 0
BITMAP
0F80
3FE0
7870
7038
F038
F000
F000
F800
7C00
7F00
3FC0
1FE0
07F0
01F0
00F8
0078
0078
E078
E070
70F0
3FE0
0F80
ENDCHAR
STARTCHAR T
ENCODING 84
SWIDTH 620 0
DWIDTH 18 0
BBX 15 22 2 0
BITMAP
FFFE
FFFE
07C0
07C0
07C0
07C0
07C0
07C0
07C0
07C0
07C0
07C0
07C0
07C0
07C0
07C0
07C0
07C0
07C0
07C0
07C0
07C0
ENDCHAR
STARTCHAR U
ENCODING 85
SWIDTH 620 0
DWIDTH 18 0
BBX 15 22 2 0
BITMAP
F83E
F83E
F83E
F83E
F83E
F83E
F83E
F83E
F83E
F83E
F83E
F83E
F83E
F83E
F83E
F83E
F83E
F83E
783C
7C7C
3FF8
0FE0
ENDCHAR
STARTCHAR V
ENCODING 86
SWIDTH 620 0
DWIDTH 18 0
BBX 15 22 2 0
BITMAP
F83E
F83E
F83E
F83E
F83E
F83E
F83E
F83E
F83E
F83E
F83E
F83E
F83E
F83E
F83E
F83E
F83E
F83C
F83C
F878
FFF0
FFC0
ENDCHAR
STARTCHAR W
ENCODING 87
SWIDTH 965 0
DWIDTH 28 0
BBX 25 22 2 0
BITMAP
F83E0F80
F83E0F80
F83E0F80
F83E0F80
F83E0F80
F83E0F80
F83E0F80
F83E0F80
F83E0F80
F83E0F80
F83E0F80
F83E0F80
F83E0F80
F83E0F80
F83E0F80
F83E0F80
F83E0F80
F83E0F00
F83E0F00
F87E1E00
FFFFFC00
FFBFF000
ENDCHAR
STARTCHAR X
ENCODING 88
SWIDTH 620 0
DWIDTH 18 0
BBX 15 22 2 0
BITMAP
F83E
F83E
F83E
F83E
F83E
F83E
F83E
783C
783C
3C78
0FE0
0FE0
3C78
783C
783C
F83E
F83E
F83E
F83E
F83E
F83E
F83E
ENDCHAR
STARTCHAR Y
ENCODING 89
SWIDTH 620 0
DWIDTH 18 0
BBX 15 22 2 0
BITMAP
F83E
F83E
F83E
F83E
F83E
F83E
F83E
F83E
783C
7C7C
3FF8
0FE0
07C0
07C0
07C0
07C0
07C0
07C0
07C0
07C0
07C0
07C0
ENDCHAR
STARTCHAR Z
ENCODING 90
SWIDTH 620 0
DWIDTH 18 0
BBX 15 22 2 0
BITMAP
FFFE
FFFE
007E
00FC
00FC
01F8
01F8
03F0
03F0
07E0
07E0
0FC0
0FC0
1F80
1F80
3F00
3F00
7E00
7E00
FC00
FFFE
FFFE
ENDCHAR
STARTCHAR bracketleft
ENCODING 91
SWIDTH 379 0
DWIDTH 11 0
BBX 8 26 2 -2
BITMAP
FF
FF
F8
F8
F8
F8
F8
F8
F8
F8
F8
F8
F8
F8
F8
F8
F8
F8
F8
F8
F8
F8
F8
F8
FF
FF
ENDCHAR
STARTCHAR backslash
ENCODING 92
SWIDTH 448 0
DWIDTH 13 0
BBX 10 24 2 0
BITMAP
E000
E000
E000
7000
7000
7000
3800
3800
3800
1C00
1C00
1C00
0E00
0E00
0E00
0700
0700
0700
0380
0380
0380
01C0
01C0
01C0
ENDCHAR
STARTCHAR bracketright
ENCODING 93
SWIDTH 72 0
DWIDTH 11 0
BBX 8 26 2 -2
BITMAP
FF
FF
1F
1F
1F
1F
1F
1F
1F
1F
1F
1F
1F
1F
1F
1F
1F
1F
1F
1F
1F
1F
1F
1F
FF
FF
ENDCHAR
STARTCHAR asciicircum
ENCODING 94
SWIDTH 72 0
DWIDTH 16 0
BBX 13 7 2 15
BITMAP
0200
0700
0F80
1DC0
38E0
7070
E038
ENDCHAR
STARTCHAR underscore
ENCODING 95
SWIDTH 689 0
DWIDTH 20 0
BBX 17 2 2 -2
BITMAP
FFFF80
FFFF80
ENDCHAR
STARTCHAR grave
ENCODING 96
SWIDTH 275 0
DWIDTH 8 0
BBX 5 9 1 13
BITMAP
F8
F8
F8
F8
F8
C0
E0
78
38
ENDCHAR
STARTCHAR a
ENCODING 97
SWIDTH 72 0
DWIDTH 18 0
BBX 15 17 2 0
BITMAP
0FE0
3FF8
707C
E03C
E03E
003E
003E
0FFE
3FFE
7C3E
783E
F83E
F83E
783E
7C7E
3FFE
0FBE
ENDCHAR
STARTCHAR b
ENCODING 98
SWIDTH 620 0
DWIDTH 18 0
BBX 15 22 2 0
BITMAP
F800
F800
F800
F800
F800
FBE0
FFF8
FC7C
F83C
F83E
F83E
F83E
F83E
F83E
F83E
F83E
F83E
F83E
F83C
F87C
FFF8
FFE0
ENDCHAR
STARTCHAR c
ENCODING 99
SWIDTH 551 0
DWIDTH 16 0
BBX 13 17 2 0
BITMAP
0F80
3FE0
7C70
7838
F838
F800
F800
F800
F800
F800
F800
F800
F838
7838
7C70
3FE0
0F80
ENDCHAR
STARTCHAR d
ENCODING 100
SWIDTH 72 0
DWIDTH 18 0
BBX 15 22 2 0
BITMAP
003E
003E
003E
003E
003E
0FFE
3FFE
7C3E
783E
F83E
F83E
F83E
F83E
F83E
F83E
F83E
F83E
F83E
783E
7C7E
3FFE
0FBE
ENDCHAR
STARTCHAR e
ENCODING 101
SWIDTH 72 0
DWIDTH 18 0
BBX 15 17 2 0
BITMAP
0FE0
3FF8
7C7C
783C
F83E
F83E
F83E
FFFE
FFFE
F800
F800
F800
F80E
780E
7C1C
3FF8
0FE0
ENDCHAR
STARTCHAR f
ENCODING 102
SWIDTH 448 0
DWIDTH 13 0
BBX 11 22 2 0
BITMAP
03E0
0FE0
1F00
1E00
3E00
FF80
FF80
3E00
3E00
3E00
3E00
3E00
3E00
3E00
3E00
3E00
3E00
3E00
3E00
3E00
3E00
3E00
ENDCHAR
STARTCHAR g
ENCODING 103
SWIDTH 72 0
DWIDTH 18 0
BBX 15 24 2 -7
BITMAP
0FFE
3FFE
7C3E
783E
F83E
F83E
F83E
F83E
F83E
F83E
F83E
F83E
F83E
783E
7C7E
3FFE
0FBE
003E
003E
E03E
E03C
707C
3FF8
0FE0
ENDCHAR
STARTCHAR h
ENCODING 104
SWIDTH 72 0
DWIDTH 18 0
BBX 15 22 2 0
BITMAP
F800
F800
F800
F800
F800
FBE0
FFF8
FC7C
F83C
F83E
F83E
F83E
F83E
F83E
F83E
F83E
F83E
F83E
F83E
F83E
F83E
F83E
ENDCHAR
STARTCHAR i
ENCODING 105
SWIDTH 72 0
DWIDTH 8 0
BBX 5 22 2 0
BITMAP
F8
F8
00
00
00
F8
F8
F8
F8
F8
F8
F8
F8
F8
F8
F8
F8
F8
F8
F8
F8
F8
ENDCHAR
STARTCHAR j
ENCODING 106
SWIDTH 482 0
DWIDTH 14 0
BBX 13 27 0 -5
BITMAP
00F8
00F8
0000
0000
0000
00F8
00F8
00F8
00F8
00F8
00F8
00F8
00F8
00F8
00F8
00F8
00F8
00F8
00F8
00F8
00F8
00F8
E0F8
E0F0
71F0
3FE0
0F80
ENDCHAR
STARTCHAR k
ENCODING 107
SWIDTH 655 0
DWIDTH 19 0
BBX 16 22 2 0
BITMAP
F800
F800
F800
F800
F800
F80F
F81E
F83C
F878
F8F0
F9E0
FBC0
FF80
FF00
FF80
FBC0
F9E0
F8F0
F878
F83C
F81E
F80F
ENDCHAR
STARTCHAR l
ENCODING 108
SWIDTH 72 0
DWIDTH 8 0
BBX 5 22 2 0
BITMAP
F8
F8
F8
F8
F8
F8
F8
F8
F8
F8
F8
F8
F8
F8
F8
F8
F8
F8
F8
F8
F8
F8
ENDCHAR
STARTCHAR m
ENCODING 109
SWIDTH 965 0
DWIDTH 28 0
BBX 25 17 2 0
BITMAP
FBE1F800
FFFBFE00
FC7F1F00
F83E0F00
F83E0F80
F83E0F80
F83E0F80
F83E0F80
F83E0F80
F83E0F80
F83E0F80
F83E0F80
F83E0F80
F83E0F80
F83E0F80
F83E0F80
F83E0F80
ENDCHAR
STARTCHAR n
ENCODING 110
SWIDTH 72 0
DWIDTH 18 0
BBX 15 17 2 0
BITMAP
FBE0
FFF8
FC7C
F83C
F83E
F83E
F83E
F83E
F83E
F83E
F83E
F83E
F83E
F83E
F83E
F83E
F83E
ENDCHAR
STARTCHAR o
ENCODING 111
SWIDTH 72 0
DWIDTH 18 0
BBX 15 17 2 0
BITMAP
0FE0
3FF8
7C7C
783C
F83E
F83E
F83E
F83E
F83E
F83E
F83E
F83E
F83E
783C
7C7C
3FF8
0FE0
ENDCHAR
STARTCHAR p
ENCODING 112
SWIDTH 72 0
DWIDTH 18 0
BBX 15 22 2 -5
BITMAP
FBE0
FFF8
FC7C
F83C
F83E
F83E
F83E
F83E
F83E
F83E
F83E
F83E
F83E
F83C
F87C
FFF8
FFE0
F800
F800
F800
F800
F800
ENDCHAR
STARTCHAR q
ENCODING 113
SWIDTH 72 0
DWIDTH 18 0
BBX 15 22 2 -5
BITMAP
0FFE
3FFE
7C3E
783E
F83E
F83E
F83E
F83E
F83E
F83E
F83E
F83E
F83E
783E
7C7E
3FFE
0FBE
003E
003E
003E
003E
003E
ENDCHAR
STARTCHAR r
ENCODING 114
SWIDTH 72 0
DWIDTH 16 0
BBX 13 17 2 0
BITMAP
F8F8
F9F8
FBF8
FFF8
FE00
FC00
F800
F800
F800
F800
F800
F800
F800
F800
F800
F800
F800
ENDCHAR
STARTCHAR s
ENCODING 115
SWIDTH 72 0
DWIDTH 15 0
BBX 12 17 2 0
BITMAP
0F00
3FC0
78E0
7070
F070
F800
FE00
7F80
3FC0
1FE0
07F0
01F0
E0F0
E0E0
71E0
3FC0
0F00
ENDCHAR
STARTCHAR t
ENCODING 116
SWIDTH 413 0
DWIDTH 12 0
BBX 9 22 2 0
BITMAP
3E00
3E00
3E00
3E00
3E00
FF80
FF80
3E00
3E00
3E00
3E00
3E00
3E00
3E00
3E00
3E00
3E00
3E00
1E00
1F00
0F80
0380
ENDCHAR
STARTCHAR u
ENCODING 117
SWIDTH 72 0
DWIDTH 18 0
BBX 15 17 2 0
BITMAP
F83E
F83E
F83E
F83E
F83E
F83E
F83E
F83E
F83E
F83E
F83E
F83E
F83E
783E
7C7E
3FFE
0FBE
ENDCHAR
STARTCHAR v
ENCODING 118
SWIDTH 72 0
DWIDTH 18 0
BBX 15 17 2 0
BITMAP
F83E
F83E
F83E
F83E
F83E
F83E
F83E
F83E
F83E
F83E
F83E
F83E
F83C
F83C
F878
FFF0
FFC0
ENDCHAR
STARTCHAR w
ENCODING 119
SWIDTH 72 0
DWIDTH 28 0
BBX 25 17 2 0
BITMAP
F83E0F80
F83E0F80
F83E0F80
F83E0F80
F83E0F80
F83E0F80
F83E0F80
F83E0F80
F83E0F80
F83E0F80
F83E0F80
F83E0F80
F83E0F00
F83E0F00
F87E1E00
FFFFFC00
FFBFF000
ENDCHAR
STARTCHAR x
ENCODING 120
SWIDTH 72 0
DWIDTH 18 0
BBX 15 17 2 0
BITMAP
F83E
F83E
F83E
F83E
783C
783C
3C78
0FE0
0FE0
3C78
783C
783C
F83E
F83E
F83E
F83E
F83E
ENDCHAR
STARTCHAR y
ENCODING 121
SWIDTH 72 0
DWIDTH 18 0
BBX 15 24 2 -7
BITMAP
F83E
F83E
F83E
F83E
F83E
F83E
F83E
F83E
F83E
F83E
F83E
F83E
F83E
783E
7C7E
3FFE
0FBE
003E
003E
E03E
E03C
707C
3FF8
0FE0
ENDCHAR
STARTCHAR z
ENCODING 122
SWIDTH 655 0
DWIDTH 19 0
BBX 16 17 2 0
BITMAP
FFFF
FFFF
001F
003F
007E
00FC
01F8
03F0
07E0
0FC0
1F80
3F00
7E00
FC00
F800
FFFF
FFFF
ENDCHAR
STARTCHAR braceleft
ENCODING 123
SWIDTH 379 0
DWIDTH 11 0
BBX 8 26 2 -2
BITMAP
03
0F
0C
18
18
18
18
18
18
18
38
70
E0
E0
70
38
18
18
18
18
18
18
18
0C
0F
03
ENDCHAR
STARTCHAR bar
ENCODING 124
SWIDTH 206 0
DWIDTH 6 0
BBX 3 26 2 -2
BITMAP
E0
E0
E0
E0
E0
E0
E0
E0
E0
E0
E0
E0
E0
E0
E0
E0
E0
E0
E0
E0
E0
E0
E0
E0
E0
E0
ENDCHAR
STARTCHAR braceright
ENCODING 125
SWIDTH 72 0
DWIDTH 10 0
BBX 7 26 2 -2
BITMAP
C0
F0
30
18
18
18
18
18
18
18
18
0C
06
06
0C
18
18
18
18
18
18
18
18
30
F0
C0
ENDCHAR
STARTCHAR asciitilde
ENCODING 126
SWIDTH 72 0
DWIDTH 18 0
BBX 15 5 2 12
BITMAP
3E0E
7F0E
F39E
E1FC
E0F8
ENDCHAR
STARTCHAR acute
ENCODING 180
SWIDTH 72 0
DWIDTH 8 0
BBX 5 9 2 13
BITMAP
F8
F8
F8
F8
F8
18
38
F0
E0
ENDCHAR
STARTCHAR Agrave
ENCODING 192
SWIDTH 1000 0
DWIDTH 18 0
BBX 15 28 2 0
BITMAP
0E00
0700
0380
01C0
0000
0000
0FE0
3FF8
7C7C
783C
F83E
F83E
F83E
F83E
F83E
F83E
FFFE
FFFE
F83E
F83E
F83E
F83E
F83E
F83E
F83E
F83E
F83E
F83E
ENDCHAR
STARTCHAR Aacute
ENCODING 193
SWIDTH 1000 0
DWIDTH 18 0
BBX 15 28 2 0
BITMAP
00E0
01C0
0380
0700
0000
0000
0FE0
3FF8
7C7C
783C
F83E
F83E
F83E
F83E
F83E
F83E
FFFE
FFFE
F83E
F83E
F83E
F83E
F83E
F83E
F83E
F83E
F83E
F83E
ENDCHAR
STARTCHAR Acircumflex
ENCODING 194
SWIDTH 1000 0
DWIDTH 18 0
BBX 15 28 2 0
BITMAP
0380
07C0
0EE0
1C70
0000
0000
0FE0
3FF8
7C7C
783C
F83E
F83E
F83E
F83E
F83E
F83E
FFFE
FFFE
F83E
F83E
F83E
F83E
F83E
F83E
F83E
F83E
F83E
F83E
ENDCHAR
STARTCHAR Atilde
ENCODING 195
SWIDTH 1000 0
DWIDTH 18 0
BBX 15 28 2 0
BITMAP
3E0E
7F0E
F39E
E1FC
E0F8
0000
0FE0
3FF8
7C7C
783C
F83E
F83E
F83E
F83E
F83E
F83E
FFFE
FFFE
F83E
F83E
F83E
F83E
F83E
F83E
F83E
F83E
F83E
F83E
ENDCHAR
STARTCHAR Adieresis
ENCODING 196
SWIDTH 1000 0
DWIDTH 18 0
BBX 15 27 2 0
BITMAP
1C70
1C70
1C70
0000
0000
0FE0
3FF8
7C7C
783C
F83E
F83E
F83E
F83E
F83E
F83E
FFFE
FFFE
F83E
F83E
F83E
F83E
F83E
F83E
F83E
F83E
F83E
F83E
ENDCHAR
STARTCHAR Egrave
ENCODING 200
SWIDTH 1000 0
DWIDTH 16 0
BBX 13 28 2 0
BITMAP
3800
1C00
0E00
0700
0000
0000
FFF8
FFF8
F800
F800
F800
F800
F800
F800
F800
F800
FFE0
FFE0
F800
F800
F800
F800
F800
F800
F800
F800
FFF8
FFF8
ENDCHAR
STARTCHAR Eacute
ENCODING 201
SWIDTH 1000 0
DWIDTH 16 0
BBX 13 28 2 0
BITMAP
01C0
0380
0700
0E00
0000
0000
FFF8
FFF8
F800
F800
F800
F800
F800
F800
F800
F800
FFE0
FFE0
F800
F800
F800
F800
F800
F800
F800
F800
FFF8
FFF8
ENDCHAR
STARTCHAR Ecircumflex
ENCODING 202
SWIDTH 1000 0
DWIDTH 16 0
BBX 13 28 2 0
BITMAP
0700
0F80
1DC0
38E0
0000
0000
FFF8
FFF8
F800
F800
F800
F800
F800
F800
F800
F800
FFE0
FFE0
F800
F800
F800
F800
F800
F800
F800
F800
FFF8
FFF8
ENDCHAR
STARTCHAR Edieresis
ENCODING 203
SWIDTH 1000 0
DWIDTH 16 0
BBX 13 27 2 0
BITMAP
38E0
38E0
38E0
0000
0000
FFF8
FFF8
F800
F800
F800
F800
F800
F800
F800
F800
FFE0
FFE0
F800
F800
F800
F800
F800
F800
F800
F800
FFF8
FFF8
ENDCHAR
STARTCHAR Igrave
ENCODING 204
SWIDTH 1000 0
DWIDTH 8 0
BBX 6 28 1 0
BITMAP
E0
70
38
1C
00
00
7C
7C
7C
7C
7C
7C
7C
7C
7C
7C
7C
7C
7C
7C
7C
7C
7C
7C
7C
7C
7C
7C
ENDCHAR
STARTCHAR Iacute
ENCODING 205
SWIDTH 1000 0
DWIDTH 8 0
BBX 6 28 2 0
BITMAP
1C
38
70
E0
00
00
F8
F8
F8
F8
F8
F8
F8
F8
F8
F8
F8
F8
F8
F8
F8
F8
F8
F8
F8
F8
F8
F8
ENDCHAR
STARTCHAR Icircumflex
ENCODING 206
SWIDTH 310 0
DWIDTH 9 0
BBX 9 28 0 0
BITMAP
1C00
3E00
7700
E380
0000
0000
3E00
3E00
3E00
3E00
3E00
3E00
3E00
3E00
3E00
3E00
3E00
3E00
3E00
3E00
3E00
3E00
3E00
3E00
3E00
3E00
3E00
3E00
ENDCHAR
STARTCHAR Idieresis
ENCODING 207
SWIDTH 310 0
DWIDTH 9 0
BBX 9 27 0 0
BITMAP
E380
E380
E380
0000
0000
3E00
3E00
3E00
3E00
3E00
3E00
3E00
3E00
3E00
3E00
3E00
3E00
3E00
3E00
3E00
3E00
3E00
3E00
3E00
3E00
3E00
3E00
ENDCHAR
STARTCHAR Ograve
ENCODING 210
SWIDTH 1000 0
DWIDTH 18 0
BBX 15 28 2 0
BITMAP
0E00
0700
0380
01C0
0000
0000
0FE0
3FF8
7C7C
783C
F83E
F83E
F83E
F83E
F83E
F83E
F83E
F83E
F83E
F83E
F83E
F83E
F83E
F83E
783C
7C7C
3FF8
0FE0
ENDCHAR
STARTCHAR Oacute
ENCODING 211
SWIDTH 1000 0
DWIDTH 18 0
BBX 15 28 2 0
BITMAP
00E0
01C0
0380
0700
0000
0000
0FE0
3FF8
7C7C
783C
F83E
F83E
F83E
F83E
F83E
F83E
F83E
F83E
F83E
F83E
F83E
F83E
F83E
F83E
783C
7C7C
3FF8
0FE0
ENDCHAR
STARTCHAR Ocircumflex
ENCODING 212
SWIDTH 1000 0
DWIDTH 18 0
BBX 15 28 2 0
BITMAP
0380
07C0
0EE0
1C70
0000
0000
0FE0
3FF8
7C7C
783C
F83E
F83E
F83E
F83E
F83E
F83E
F83E
F83E
F83E
F83E
F83E
F83E
F83E
F83E
783C
7C7C
3FF8
0FE0
ENDCHAR
STARTCHAR Otilde
ENCODING 213
SWIDTH 1000 0
DWIDTH 18 0
BBX 15 28 2 0
BITMAP
3E0E
7F0E
F39E
E1FC
E0F8
0000
0FE0
3FF8
7C7C
783C
F83E
F83E
F83E
F83E
F83E
F83E
F83E
F83E
F83E
F83E
F83E
F83E
F83E
F83E
783C
7C7C
3FF8
0FE0
ENDCHAR
STARTCHAR Odieresis
ENCODING 214
SWIDTH 1000 0
DWIDTH 18 0
BBX 15 27 2 0
BITMAP
1C70
1C70
1C70
0000
0000
0FE0
3FF8
7C7C
783C
F83E
F83E
F83E
F83E
F83E
F83E
F83E
F83E
F83E
F83E
F83E
F83E
F83E
F83E
783C
7C7C
3FF8
0FE0
ENDCHAR
STARTCHAR agrave
ENCODING 224
SWIDTH 72 0
DWIDTH 18 0
BBX 15 24 2 0
BITMAP
0E00
0700
0380
01C0
0000
0000
0000
0FE0
3FF8
707C
E03C
E03E
003E
003E
0FFE
3FFE
7C3E
783E
F83E
F83E
783E
7C7E
3FFE
0FBE
ENDCHAR
STARTCHAR aacute
ENCODING 225
SWIDTH 72 0
DWIDTH 18 0
BBX 15 24 2 0
BITMAP
00E0
01C0
0380
0700
0000
0000
0000
0FE0
3FF8
707C
E03C
E03E
003E
003E
0FFE
3FFE
7C3E
783E
F83E
F83E
783E
7C7E
3FFE
0FBE
ENDCHAR
STARTCHAR acircumflex
ENCODING 226
SWIDTH 72 0
DWIDTH 18 0
BBX 15 24 2 0
BITMAP
0380
07C0
0EE0
1C70
0000
0000
0000
0FE0
3FF8
707C
E03C
E03E
003E
003E
0FFE
3FFE
7C3E
783E
F83E
F83E
783E
7C7E
3FFE
0FBE
ENDCHAR
STARTCHAR adieresis
ENCODING 228
SWIDTH 72 0
DWIDTH 18 0
BBX 15 23 2 0
BITMAP
1C70
1C70
1C70
0000
0000
0000
0FE0
3FF8
707C
E03C
E03E
003E
003E
0FFE
3FFE
7C3E
783E
F83E
F83E
783E
7C7E
3FFE
0FBE
ENDCHAR
STARTCHAR ccedilla
ENCODING 231
SWIDTH 72 0
DWIDTH 16 0
BBX 13 24 2 -7
BITMAP
0F80
3FE0
7C70
7838
F838
F800
F800
F800
F800
F800
F800
F800
F838
7838
7C70
3FE0
0F80
0700
0780
01C0
00C0
01C0
0780
0700
ENDCHAR
STARTCHAR egrave
ENCODING 232
SWIDTH 72 0
DWIDTH 18 0
BBX 15 24 2 0
BITMAP
0E00
0700
0380
01C0
0000
0000
0000
0FE0
3FF8
7C7C
783C
F83E
F83E
F83E
FFFE
FFFE
F800
F800
F800
F80E
780E
7C1C
3FF8
0FE0
ENDCHAR
STARTCHAR eacute
ENCODING 233
SWIDTH 72 0
DWIDTH 18 0
BBX 15 24 2 0
BITMAP
00E0
01C0
0380
0700
0000
0000
0000
0FE0
3FF8
7C7C
783C
F83E
F83E
F83E
FFFE
FFFE
F800
F800
F800
F80E
780E
7C1C
3FF8
0FE0
ENDCHAR
STARTCHAR ecircumflex
ENCODING 234
SWIDTH 72 0
DWIDTH 18 0
BBX 15 24 2 0
BITMAP
0380
07C0
0EE0
1C70
0000
0000
0000
0FE0
3FF8
7C7C
783C
F83E
F83E
F83E
FFFE
FFFE
F800
F800
F800
F80E
780E
7C1C
3FF8
0FE0
ENDCHAR
STARTCHAR edieresis
ENCODING 235
SWIDTH 72 0
DWIDTH 18 0
BBX 15 23 2 0
BITMAP
1C70
1C70
1C70
0000
0000
0000
0FE0
3FF8
7C7C
783C
F83E
F83E
F83E
FFFE
FFFE
F800
F800
F800
F80E
780E
7C1C
3FF8
0FE0
ENDCHAR
STARTCHAR igrave
ENCODING 236
SWIDTH 72 0
DWIDTH 8 0
BBX 6 24 1 0
BITMAP
E0
70
38
1C
00
00
00
7C
7C
7C
7C
7C
7C
7C
7C
7C
7C
7C
7C
7C
7C
7C
7C
7C
ENDCHAR
STARTCHAR iacute
ENCODING 237
SWIDTH 72 0
DWIDTH 8 0
BBX 6 24 2 0
BITMAP
1C
38
70
E0
00
00
00
F8
F8
F8
F8
F8
F8
F8
F8
F8
F8
F8
F8
F8
F8
F8
F8
F8
ENDCHAR
STARTCHAR icircumflex
ENCODING 238
SWIDTH 310 0
DWIDTH 9 0
BBX 9 24 0 0
BITMAP
1C00
3E00
7700
E380
0000
0000
0000
3E00
3E00
3E00
3E00
3E00
3E00
3E00
3E00
3E00
3E00
3E00
3E00
3E00
3E00
3E00
3E00
3E00
ENDCHAR
STARTCHAR idieresis
ENCODING 239
SWIDTH 310 0
DWIDTH 9 0
BBX 9 23 0 0
BITMAP
E380
E380
E380
0000
0000
0000
3E00
3E00
3E00
3E00
3E00
3E00
3E00
3E00
3E00
3E00
3E00
3E00
3E00
3E00
3E00
3E00
3E00
ENDCHAR
STARTCHAR ntilde
ENCODING 241
SWIDTH 72 0
DWIDTH 18 0
BBX 15 25 2 0
BITMAP
3E0E
7F0E
F39E
E1FC
E0F8
0000
0000
0000
FBE0
FFF8
FC7C
F83C
F83E
F83E
F83E
F83E
F83E
F83E
F83E
F83E
F83E
F83E
F83E
F83E
F83E
ENDCHAR
STARTCHAR ograve
ENCODING 242
SWIDTH 72 0
DWIDTH 18 0
BBX 15 24 2 0
BITMAP
0E00
0700
0380
01C0
0000
0000
0000
0FE0
3FF8
7C7C
783C
F83E
F83E
F83E
F83E
F83E
F83E
F83E
F83E
F83E
783C
7C7C
3FF8
0FE0
ENDCHAR
STARTCHAR oacute
ENCODING 243
SWIDTH 72 0
DWIDTH 18 0
BBX 15 24 2 0
BITMAP
00E0
01C0
0380
0700
0000
0000
0000
0FE0
3FF8
7C7C
783C
F83E
F83E
F83E
F83E
F83E
F83E
F83E
F83E
F83E
783C
7C7C
3FF8
0FE0
ENDCHAR
STARTCHAR ocircumflex
ENCODING 244
SWIDTH 72 0
DWIDTH 18 0
BBX 15 24 2 0
BITMAP
0380
07C0
0EE0
1C70
0000
0000
0000
0FE0
3FF8
7C7C
783C
F83E
F83E
F83E
F83E
F83E
F83E
F83E
F83E
F83E
783C
7C7C
3FF8
0FE0
ENDCHAR
STARTCHAR odieresis
ENCODING 246
SWIDTH 72 0
DWIDTH 18 0
BBX 15 23 2 0
BITMAP
1C70
1C70
1C70
0000
0000
0000
0FE0
3FF8
7C7C
783C
F83E
F83E
F83E
F83E
F83E
F83E
F83E
F83E
F83E
783C
7C7C
3FF8
0FE0
ENDCHAR
STARTCHAR afii61352
ENCODING 8470
DWIDTH 32 0
BBX 29 22 2 0
BITMAP
C001C3E0
E001C7F0
F001CE38
F801CC18
FC01CC18
FE01CC18
FF01CE38
FF81C7F0
FFC1C3E0
EFE1C000
E7F1C000
E3F9CFF8
E1FDCFF8
E0FFC000
E07FC000
E03FC000
E01FC000
E00FC000
E007C000
E003C000
E001C000
E000C000
ENDCHAR
ENDFONT
